<svg width="500" height="500" fill="none" viewBox="0 0 500 500" xmlns="http://www.w3.org/2000/svg">
  <style>
  @keyframes line-anim {
    to {
      stroke-dashoffset: 0;
    }
  }

  @keyframes fillin {
    to {
      fill: black;
      stroke:black;
    }
  }

  path{
    animation: fillin 1.5s ease-in-out forwards 2s;
  }

  .st1 {
    stroke-dasharray: 570px;
    stroke-dashoffset: 570px;
    stroke: white;
    stroke-width: 3px;
    animation: line-anim 1s ease forwards 0s, fillin 1.5s ease-in-out forwards 2s;
  }

  .st2 {
    stroke-dasharray: 570px;
    stroke-dashoffset: 570px;
    stroke: white;
    stroke-width: 3px;
    animation: line-anim 1s ease forwards 0.3s, fillin 1.5s ease-in-out forwards 2s;

  }
    .st3 {
    stroke-dasharray: 570px;
    stroke-dashoffset: 570px;
    stroke: white;
    stroke-width: 3px;
    animation: line-anim 1s ease forwards 0.6s, fillin 1.5s ease-in-out forwards 2s;

  }
  </style>
<path class="st1" d="M33.9746 137.383H107.787C124.87 137.383 140.021 140.581 153.245 146.966C166.48 153.357 176.735 162.424 184.016 174.174C191.308 185.914 194.954 199.654 194.954 215.404C194.954 231.169 191.308 244.924 184.016 256.674C176.735 268.414 166.48 277.477 153.245 283.862C140.021 290.253 124.87 293.445 107.787 293.445H33.9746V137.383ZM105.995 258.216C119.37 258.216 130.105 254.424 138.204 246.841C146.313 239.258 150.37 228.779 150.37 215.404C150.37 202.029 146.313 191.56 138.204 183.987C130.105 176.404 119.37 172.612 105.995 172.612H78.1204V258.216H105.995Z"/>
<path class="st2" d="M173.532 137.383H247.344C264.428 137.383 279.579 140.581 292.803 146.966C306.037 153.357 316.292 162.424 323.574 174.174C330.865 185.914 334.511 199.654 334.511 215.404C334.511 231.169 330.865 244.924 323.574 256.674C316.292 268.414 306.037 277.477 292.803 283.862C279.579 290.253 264.428 293.445 247.344 293.445H173.532V137.383ZM245.553 258.216C258.928 258.216 269.662 254.424 277.761 246.841C285.87 239.258 289.928 228.779 289.928 215.404C289.928 202.029 285.87 191.56 277.761 183.987C269.662 176.404 258.928 172.612 245.553 172.612H217.678V258.216H245.553Z"/>
<path class="st3" d="M313.089 137.383H386.902C403.985 137.383 419.136 140.581 432.36 146.966C445.594 153.357 455.85 162.424 463.131 174.174C470.423 185.914 474.068 199.654 474.068 215.404C474.068 231.169 470.423 244.924 463.131 256.674C455.85 268.414 445.594 277.477 432.36 283.862C419.136 290.253 403.985 293.445 386.902 293.445H313.089V137.383ZM385.11 258.216C398.485 258.216 409.219 254.424 417.318 246.841C425.428 239.258 429.485 228.779 429.485 215.404C429.485 202.029 425.428 191.56 417.318 183.987C409.219 176.404 398.485 172.612 385.11 172.612H357.235V258.216H385.11Z"/>
<path d="M141.102 348.42C138.436 348.42 137.102 347.118 137.102 344.504V320.754C137.102 318.212 138.394 316.941 140.977 316.941H155.29C161.498 316.941 165.363 317.623 166.894 318.983C169.477 320.639 171.212 323.347 172.102 327.108C173.003 330.873 173.133 334.618 172.498 338.337C171.857 342.045 170.165 344.733 167.415 346.399C164.3 347.931 160.258 348.602 155.29 348.42H141.102ZM155.29 343.587C158.732 343.629 161.045 342.139 162.227 339.108C163.363 334.79 163.363 330.441 162.227 326.066C161.227 323.316 158.915 321.941 155.29 321.941C153.665 321.941 150.883 321.941 146.956 321.941V343.587H155.29Z"/>
<path d="M199.087 330.462C200.973 330.504 202.509 329.977 203.691 328.879C204.827 327.17 204.827 325.358 203.691 323.441C202.509 322.441 200.973 321.941 199.087 321.941H188.671V330.462H199.087ZM178.816 320.754C178.816 318.212 180.108 316.941 182.691 316.941H199.087C203.723 316.941 207.072 317.306 209.129 318.024C211.181 318.748 212.655 320.207 213.546 322.399C214.447 324.582 214.577 326.79 213.941 329.024C213.316 331.248 212.03 332.774 210.087 333.608C208.139 334.441 206.577 334.858 205.4 334.858L215.941 348.42H205.066L194.837 335.316H188.671V348.42H178.816V320.754Z"/>
<path d="M231.565 316.941V348.42H221.711V316.941H231.565Z"/>
<path d="M237.518 316.941H247.372L258.976 339.254L270.58 316.941H280.414L265.476 345.358C264.419 347.399 262.731 348.42 260.414 348.42H257.268C255.127 348.42 253.507 347.399 252.414 345.358L237.518 316.941Z"/>
<path d="M318.006 329.858C318.006 332.931 316.735 334.462 314.194 334.462H296.235V343.899H320.36C320.36 346.915 319.095 348.42 316.569 348.42H290.381C287.715 348.42 286.381 347.118 286.381 344.504V320.879C286.381 318.254 287.694 316.941 290.319 316.941H320.36C320.36 320.014 319.095 321.545 316.569 321.545H296.235V329.858H318.006Z"/>
<path d="M338.607 319.566L352.899 336.024V316.941H362.732V344.295C362.732 347.045 361.263 348.42 358.336 348.42H356.899C354.232 348.42 351.716 347.269 349.357 344.962L335.982 329.337V348.42H326.128V321.149C326.128 318.347 327.305 316.941 329.669 316.941H333.94C335.258 316.941 336.815 317.816 338.607 319.566Z"/>
<path d="M69.7321 390.932C67.0655 390.932 65.7321 389.63 65.7321 387.016V363.266C65.7321 360.724 67.0238 359.453 69.6071 359.453H83.9196C90.128 359.453 93.9926 360.135 95.5238 361.495C98.1071 363.151 99.8415 365.859 100.732 369.62C101.633 373.385 101.763 377.13 101.128 380.849C100.487 384.557 98.7946 387.245 96.0446 388.911C92.9301 390.443 88.8884 391.115 83.9196 390.932H69.7321ZM83.9196 386.099C87.3624 386.141 89.6749 384.651 90.8571 381.62C91.9926 377.302 91.9926 372.953 90.8571 368.578C89.8571 365.828 87.5446 364.453 83.9196 364.453C82.2946 364.453 79.5134 364.453 75.5863 364.453V386.099H83.9196Z"/>
<path d="M139.071 372.37C139.071 375.443 137.801 376.974 135.259 376.974H117.301V386.411H141.426C141.426 389.427 140.16 390.932 137.634 390.932H111.446C108.78 390.932 107.446 389.63 107.446 387.016V363.391C107.446 360.766 108.759 359.453 111.384 359.453H141.426C141.426 362.526 140.16 364.057 137.634 364.057H117.301V372.37H139.071Z"/>
<path d="M178.943 361.099C182.443 363.156 184.172 366.281 184.13 370.474H174.297C174.198 366.464 171.401 364.453 165.901 364.453C160.61 364.453 157.943 365.984 157.901 369.036C157.943 371.401 160.61 372.578 165.901 372.578C173.287 372.495 178.245 373.13 180.776 374.474C183.537 375.839 184.922 378.047 184.922 381.099C184.922 385.297 183.193 388.245 179.735 389.953C177.287 391.177 172.61 391.786 165.693 391.786C158.787 391.786 154.37 391.177 152.443 389.953C149.078 388.036 147.401 384.672 147.401 379.849H157.11C157.11 384.365 159.776 386.62 165.11 386.62C171.62 386.62 174.948 384.802 175.089 381.161C174.948 378.984 171.62 377.87 165.11 377.828C159.552 377.87 155.505 377.323 152.964 376.182C149.781 374.964 148.193 372.557 148.193 368.974C148.193 365.432 149.87 362.807 153.235 361.099C155.677 359.88 159.964 359.266 166.089 359.266C172.214 359.266 176.495 359.88 178.943 361.099Z"/>
<path d="M200.598 359.453V390.932H190.744V359.453H200.598Z"/>
<path d="M238.05 361.099C242.425 363.156 244.675 366.547 244.8 371.266H234.967C234.868 366.724 231.894 364.453 226.05 364.453C219.66 364.453 216.467 368.193 216.467 375.661C216.467 383.401 219.743 387.266 226.3 387.266C231.41 387.266 234.321 384.359 235.029 378.536H224.925V373.953H240.467C243.535 373.953 245.092 375.224 245.134 377.766C245.092 383.266 243.805 386.984 241.279 388.911C238.764 390.828 233.623 391.786 225.863 391.786C218.113 391.786 213.29 391.047 211.404 389.557C208.305 387.198 206.759 382.63 206.759 375.849C206.759 368.115 208.967 363.198 213.384 361.099C216.352 359.88 220.467 359.266 225.717 359.266C230.967 359.266 235.076 359.88 238.05 361.099Z"/>
<path d="M263.498 362.078L277.79 378.536V359.453H287.623V386.807C287.623 389.557 286.155 390.932 283.228 390.932H281.79C279.123 390.932 276.608 389.781 274.248 387.474L260.873 371.849V390.932H251.019V363.661C251.019 360.859 252.196 359.453 254.561 359.453H258.832C260.149 359.453 261.707 360.328 263.498 362.078Z"/>
<path d="M316.016 390.932C313.35 390.932 312.016 389.63 312.016 387.016V363.266C312.016 360.724 313.308 359.453 315.891 359.453H330.204C336.412 359.453 340.277 360.135 341.808 361.495C344.391 363.151 346.126 365.859 347.016 369.62C347.917 373.385 348.047 377.13 347.412 380.849C346.771 384.557 345.079 387.245 342.329 388.911C339.214 390.443 335.172 391.115 330.204 390.932H316.016ZM330.204 386.099C333.646 386.141 335.959 384.651 337.141 381.62C338.277 377.302 338.277 372.953 337.141 368.578C336.141 365.828 333.829 364.453 330.204 364.453C328.579 364.453 325.797 364.453 321.87 364.453V386.099H330.204Z"/>
<path d="M371.918 391.786C365.611 391.745 361.085 390.922 358.335 389.307C355.486 387.599 354.001 383.734 353.876 377.703V359.453H363.71V377.766C363.71 384.057 366.444 387.203 371.918 387.203C377.376 387.203 380.105 384.057 380.105 377.766V359.453H389.939V377.703C389.814 383.734 388.324 387.599 385.48 389.307C382.73 390.922 378.21 391.745 371.918 391.786Z"/>
<path d="M427.404 361.099C431.904 363.198 434.154 368.115 434.154 375.849C434.154 382.63 432.893 386.984 430.383 388.911C427.867 390.828 422.768 391.786 415.091 391.786C407.425 391.786 402.643 391.047 400.758 389.557C397.659 387.198 396.112 382.63 396.112 375.849C396.112 368.115 398.321 363.198 402.737 361.099C405.706 359.88 409.821 359.266 415.071 359.266C420.321 359.266 424.43 359.88 427.404 361.099ZM414.862 387.266C421.164 387.266 424.321 383.401 424.321 375.661C424.321 368.193 421.164 364.453 414.862 364.453C408.831 364.453 405.821 368.193 405.821 375.661C405.821 383.401 408.831 387.266 414.862 387.266Z"/>
</svg>
