<svg xmlns="http://www.w3.org/2000/svg" viewBox="0 0 16 16" width="32" height="32">
  <style>
    @keyframes svgIconSpinner {
      0% {
        opacity: 1;
      }
      100% {
        opacity: 0;
      }
    }
    .st0 {
      width: 1.3px;
      height: 4px;
      fill: #fff;
      animation: svgIconSpinner 1.1s linear infinite;
    }
    .st0:nth-child(1) {
      animation-delay: -1.1s;
    }
    .st0:nth-child(2) {
      animation-delay: -1s;
    }
    .st0:nth-child(3) {
      animation-delay: -.9s;
    }
    .st0:nth-child(4) {
      animation-delay: -.8s;
    }
    .st0:nth-child(5) {
      animation-delay: -.7s;
    }
    .st0:nth-child(6) {
      animation-delay: -.6s;
    }
    .st0:nth-child(7) {
      animation-delay: -.5s;
    }
    .st0:nth-child(8) {
      animation-delay: -.4s;
    }
    .st0:nth-child(9) {
      animation-delay: -.3s;
    }
    .st0:nth-child(10) {
      animation-delay: -.2s;
    }
    .st0:nth-child(11) {
      animation-delay: -.1s;
    }
  </style>
  <rect x="7.35" y="0" transform="rotate(0 8 8)" class="st0" />
  <rect x="7.35" y="0" transform="rotate(30 8 8)" class="st0" />
  <rect x="7.35" y="0" transform="rotate(60 8 8)" class="st0" />
  <rect x="7.35" y="0" transform="rotate(90 8 8)" class="st0" />
  <rect x="7.35" y="0" transform="rotate(120 8 8)" class="st0" />
  <rect x="7.35" y="0" transform="rotate(150 8 8)" class="st0" />
  <rect x="7.35" y="0" transform="rotate(180 8 8)" class="st0" />
  <rect x="7.35" y="0" transform="rotate(210 8 8)" class="st0" />
  <rect x="7.35" y="0" transform="rotate(240 8 8)" class="st0" />
  <rect x="7.35" y="0" transform="rotate(270 8 8)" class="st0" />
  <rect x="7.35" y="0" transform="rotate(300 8 8)" class="st0" />
  <rect x="7.35" y="0" transform="rotate(330 8 8)" class="st0" />
</svg>